HIERARCHY
ROOT pelvis
{
  OFFSET 0 100 0
  CHANNELS 6 Xposition Yposition Zposition Zrotation Xrotation Yrotation
  JOINT pelvis_right_femur
  {
    OFFSET -10.78128 -3.44521 -0.5502486
    CHANNELS 3 Zrotation Xrotation Yrotation
    JOINT right_femur_tibia
    {
      OFFSET -0.8047443 -44.0398 -0.1307829
      CHANNELS 3 Zrotation Xrotation Yrotation
      JOINT right_tibia_foot
      {
        OFFSET 3.006224 -47.83518 -5
        CHANNELS 3 Zrotation Xrotation Yrotation
        End Site
        {
          OFFSET 0 -5 15
        }
      }
    }
  }
  JOINT pelvis_left_femur
  {
    OFFSET 10.78128 -3.44521 -0.5502486
    CHANNELS 3 Zrotation Xrotation Yrotation
    JOINT left_femur_tibia
    {
      OFFSET 0.8047443 -44.0398 -0.1307829
      CHANNELS 3 Zrotation Xrotation Yrotation
      JOINT left_tibia_foot
      {
        OFFSET -4.370144 -48.10324 -4.275266
        CHANNELS 3 Zrotation Xrotation Yrotation
        End Site
        {
          OFFSET 0 -5 15
        }
      }
    }
  }
  JOINT pelvis_spine1
  {
    OFFSET 0 6.468898 -3.129235
    CHANNELS 3 Zrotation Xrotation Yrotation
    JOINT spine1
    {
      OFFSET 0 23.15396 4.99043
      CHANNELS 3 Zrotation Xrotation Yrotation
      JOINT spine2
      {
        OFFSET 0 20.79997 -5.064912
        CHANNELS 3 Zrotation Xrotation Yrotation
        JOINT neck
        {
          OFFSET 0 14.38658 9.616178
          CHANNELS 3 Zrotation Xrotation Yrotation
          End Site
          {
            OFFSET 0 20 0
          }
        }
      }
      JOINT right_manubrium
      {
        OFFSET -5.722621 16.35077 3.967754
        CHANNELS 3 Zrotation Xrotation Yrotation
        JOINT right_clavicle
        {
          OFFSET -13.16364 1.694482 -4.693211
          CHANNELS 3 Zrotation Xrotation Yrotation
          JOINT right_humerus
          {
            OFFSET -28.5034 -0.3100689 -2.792744
            CHANNELS 3 Zrotation Xrotation Yrotation
            JOINT right_radius
            {
              OFFSET -25.15693 0.02248979 -1.271978
              CHANNELS 3 Zrotation Xrotation Yrotation
              End Site
              {
                OFFSET -15 0 0
              }
            }
          }
        }
      }
      JOINT left_manubrium
      {
        OFFSET 5.722621 16.35077 3.967754
        CHANNELS 3 Zrotation Xrotation Yrotation
        JOINT left_clavicle
        {
          OFFSET 13.16364 1.694482 -4.693211
          CHANNELS 3 Zrotation Xrotation Yrotation
          JOINT left_humerus
          {
            OFFSET 29.39168 -1.063119 -2.237045
            CHANNELS 3 Zrotation Xrotation Yrotation
            JOINT left_radius
            {
              OFFSET 24.59957 -0.9528479 0.9047498
              CHANNELS 3 Zrotation Xrotation Yrotation
              End Site
              {
                OFFSET 15 -0 -0
              }
            }
          }
        }
      }
    }
  }
}
MOTION
Frames: 13
Frame Time: 0.0416666666667
0 103.5113 0 1.842321 0.5354299 -0.1233951 3.35306 -17.3768 10.46463 -0 39.65301 -0 -5.333402 -19.75325 -2.944747 -8.218242 7.781294 -23.99109 -0 6.461902 -0 16.24223 -11.82174 30.1636 -4.535386 -4.134592 5.865955 2.621001 9.939015 -7.797842 1.424108 21.87227 6.353994 3.081699 -24.3396 9.117017 7.687839 -20.10156 12.03394 84.22728 40.54726 -17.27861 -0 0 16.73392 -4.568942 7.658619 3.756385 5.79425 -18.87698 -0.9000367 -90.45663 21.18901 18.68647 0 0 -17.34437 17.33047 13.59409 -5.057797
0.2794378 103.44 1.390234 1.705272 0.6253353 -0.1933413 3.532673 -18.46825 10.07871 -0 38.34134 -0 -5.298825 -18.74086 -2.827647 -8.101844 8.309492 -23.51991 -0 6.093836 -0 15.90918 -12.5019 29.73379 -4.430346 -4.010657 5.745544 2.646343 9.993218 -7.830904 1.430116 21.78374 6.382859 3.057623 -24.45646 9.166441 7.407793 -20.08359 11.98431 84.64021 40.07049 -17.66939 -0 0 16.38903 -4.970234 7.735303 3.907242 5.919838 -19.17831 -1.033695 -90.24334 21.15024 18.47311 0 0 -18.05261 17.07779 13.54046 -4.811706
0.6115726 103.0684 3.372083 0.8817032 -0.2764722 -0.09387728 3.500108 -21.12238 7.509807 -0 35.7367 -0 -6.411965 -12.85955 -2.116027 -7.023863 9.316007 -21.23067 -0 5.703528 -0 12.88452 -15.14807 26.76044 -3.593046 -3.231786 4.800449 2.406656 10.50418 -7.60209 1.389044 21.85041 6.788455 3.307176 -24.43139 9.274885 6.384307 -19.83596 12.06664 85.71227 36.45662 -18.18506 -0 0 14.95916 -9.143707 9.087905 5.464789 6.394564 -20.571 -2.082818 -90.34374 20.26049 18.33589 0 0 -17.44256 16.21696 15.10554 -4.219418
0.9610797 102.637 5.53476 0.704615 -0.9003065 0.03506622 3.195153 -21.29904 6.464435 -0 35.72982 -0 -7.054584 -10.71929 -1.811226 -6.674084 9.264499 -20.46242 -0 5.894793 -0 11.81663 -15.62271 25.71353 -3.315388 -2.943975 4.477971 2.195077 10.74941 -7.434653 1.361658 21.97559 6.941442 3.496423 -24.13699 9.182126 6.097363 -19.72848 12.14754 85.94273 35.14329 -18.07011 -0 0 14.54364 -10.88989 9.535682 6.140559 6.540642 -21.0178 -2.555446 -90.32274 19.64698 18.17745 0 0 -16.78432 16.21673 15.6714 -4.384618
1.304735 102.0306 8.111598 0.6307882 -0.358181 0.2261266 3.506632 -24.28928 5.586324 -0 31.22129 -0 -6.752927 -9.165535 -1.608841 -6.739928 10.77082 -19.46381 -0 5.208749 -0 11.3893 -16.98168 24.84253 -3.240997 -2.652464 4.400229 2.269551 10.64681 -7.544638 1.443462 21.70843 6.806312 3.388127 -24.29062 9.153 5.329861 -19.60103 11.83782 86.94192 34.64134 -19.04129 -0 0 13.81126 -10.83989 9.039412 6.023227 6.871837 -21.57557 -2.776047 -89.21532 19.61599 16.95225 0 0 -19.71843 15.74024 14.70934 -4.000652
1.620833 101.2562 11.26888 0.2726872 0.9130187 0.498376 4.54102 -28.71415 5.043544 -0 24.66225 -0 -6.095699 -7.482767 -1.436621 -6.777399 13.1022 -18.20678 -0 5.083833 -0 10.55068 -18.86125 23.63802 -3.036928 -2.349908 4.254352 2.571087 10.36938 -7.830635 1.5358 21.23085 6.638297 3.133858 -24.92109 9.297519 4.484903 -19.32758 11.36562 88.20604 34.52672 -20.61289 -0 0 12.79231 -9.990933 8.481852 5.53265 7.21615 -22.17852 -2.798469 -88.16072 20.3806 15.80606 0 0 -23.61654 14.62248 13.49113 -2.824756
1.893295 100.4979 15.02218 -0.4045205 2.520628 0.8639875 6.180087 -32.68135 5.159075 -0 19.17381 -0 -5.560886 -5.870843 -1.185576 -6.637388 15.16666 -17.1128 -0 6.895187 -0 9.040083 -20.15512 22.11568 -2.571669 -2.1322 4.010736 2.91308 10.05434 -8.156336 1.537035 20.72154 6.680063 3.011899 -25.69622 9.574976 4.187491 -18.81303 10.96358 89.09769 35.28183 -22.19354 -0 0 11.79965 -8.771033 8.431997 4.831257 7.421021 -22.57374 -2.634183 -87.78138 21.80204 15.46052 0 0 -26.55419 13.40956 12.6649 -1.332234
2.124668 100.0181 19.37333 -1.381407 4.202984 1.324973 8.267089 -35.1727 5.828616 -0 16.15479 -0 -5.351566 -4.359939 -0.7127289 -6.243987 16.34079 -16.32121 -0 11.39824 -0 6.703093 -20.16172 20.16675 -1.732449 -2.029039 3.686076 3.147229 9.794297 -8.439514 1.376688 20.28224 7.085062 3.187908 -26.30423 9.923532 4.688774 -18.02066 10.75231 89.37883 36.99317 -23.53014 -0 0 10.92237 -7.527877 9.162491 4.114777 7.45023 -22.64831 -2.369406 -88.30091 23.67102 16.23532 0 0 -27.83169 12.44756 12.46107 0.2200529
2.352829 100.0242 24.29436 -2.491239 5.44294 1.827314 10.16011 -35.18061 6.408148 -0 16.32747 -0 -5.544729 -3.095421 0.04281266 -5.600888 16.04593 -15.81224 -0 18.39384 -0 3.719381 -18.47099 17.87321 -0.51947 -2.051074 3.336396 3.137671 9.700126 -8.589339 1.015061 20.0794 7.885266 3.677477 -26.38698 10.21994 5.882613 -17.05892 10.83425 88.91465 38.92319 -24.27533 -0 0 10.16343 -6.935265 10.75633 3.839012 7.317407 -22.38357 -2.181269 -89.76873 25.48619 18.1842 0 0 -27.01113 12.01499 13.09195 1.576628
2.630745 100.4404 29.67407 -3.262233 5.609384 2.218927 10.86917 -32.85329 5.904618 -0 18.22833 -0 -6.010545 -2.171056 0.8715016 -4.971914 14.46634 -15.23763 -0 25.50611 -0 1.090238 -15.82281 15.74297 0.6623049 -2.157466 3.082406 2.878807 9.854255 -8.566154 0.5484482 20.2502 8.747552 4.206985 -25.76169 10.2376 6.97357 -16.26066 11.17595 88.04694 39.44474 -24.28602 -0 0 9.393562 -7.769561 12.62106 4.476484 7.160408 -22.1032 -2.321324 -91.33848 26.3039 20.19202 0 0 -24.89482 12.26668 14.29566 2.230615
2.953363 100.994 35.38258 -3.400516 4.751761 2.399348 10.42096 -30.01438 4.300754 -0 18.81528 -0 -6.633127 -1.290464 1.396728 -4.589646 12.84351 -14.14984 -0 30.6495 -0 -0.2554855 -13.66976 14.12508 1.309989 -2.286309 2.952728 2.612088 10.22477 -8.489306 0.183956 20.65727 9.145127 4.434431 -24.79773 9.865597 7.132724 -15.86283 11.55157 87.6055 37.87443 -24.06905 -0 0 8.519373 -9.854861 13.79262 5.72923 7.068841 -22.26216 -2.851581 -91.78767 25.56645 20.70054 0 0 -23.10774 13.01912 15.24622 1.738622
3.264236 101.5819 41.39053 -3.183239 3.460229 2.404489 9.734277 -27.59738 2.476329 -0 17.43727 -0 -7.494983 -0.2756878 1.509025 -4.320509 11.77013 -12.55299 -0 35.21159 -0 -0.5422342 -12.04557 12.85756 1.511409 -2.459375 2.872001 2.527928 10.76623 -8.501997 -0.01145012 21.04378 8.984212 4.35165 -23.92827 9.231731 6.483786 -15.76906 11.82615 87.84306 35.25005 -24.05119 -0 0 7.691848 -12.23034 14.14307 6.87834 6.899578 -22.82612 -3.597368 -91.25171 23.62643 19.92864 0 0 -21.95511 13.93695 15.51708 0.3149654
3.511778 102.219 47.70159 -2.828134 1.771625 2.229381 9.203455 -24.96561 0.8233544 -0 15.34936 -0 -8.632147 0.8120959 1.30662 -4.05009 10.91352 -10.6846 -0 40.51632 -0 -0.1508453 -10.32261 11.98923 1.56757 -2.744968 2.845033 2.506203 11.55511 -8.56742 -0.06648637 21.41444 8.451755 4.085127 -23.03706 8.460243 5.294127 -15.93729 12.04358 88.60778 31.89381 -24.17762 -0 0 6.983313 -14.60009 14.03586 7.806451 6.601261 -23.65351 -4.539388 -90.42448 21.0059 18.76526 0 0 -21.06276 14.95527 15.39202 -1.618391
